<svg xmlns="http://www.w3.org/2000/svg" viewBox="0 0 14 14">
  <defs>
    <style>
      .cls-1 {
        opacity: 0.89;
      }

      .cls-2 {
        fill: #fff;
      }
    </style>
  </defs>
  <g id="noun_Close_1180194" transform="translate(-1 -1)">
    <g id="Group_161" data-name="Group 161" class="cls-1">
      <path id="Path_60" data-name="Path 60" class="cls-2" d="M14.7,1.3a.967.967,0,0,0-1.4,0L8,6.6,2.7,1.3a.967.967,0,0,0-1.4,0,.967.967,0,0,0,0,1.4L6.6,8,1.3,13.3a.967.967,0,0,0,0,1.4A.908.908,0,0,0,2,15a.908.908,0,0,0,.7-.3L8,9.4l5.3,5.3a.967.967,0,0,0,1.4,0,.967.967,0,0,0,0-1.4L9.4,8l5.3-5.3A.967.967,0,0,0,14.7,1.3Z"/>
    </g>
  </g>
</svg>
