<?xml version="1.0" encoding="UTF-8"?>
<svg width="31px" height="44px" viewBox="0 0 31 44" version="1.1" xmlns="http://www.w3.org/2000/svg" xmlns:xlink="http://www.w3.org/1999/xlink">
    <!-- Generator: Sketch 52.3 (67297) - http://www.bohemiancoding.com/sketch -->
    <title>noun_Train_654733</title>
    <desc>Created with Sketch.</desc>
    <g id="Page-1" stroke="none" stroke-width="1" fill="none" fill-rule="evenodd" stroke-linecap="round" stroke-linejoin="round">
        <g id="Desktop-Copy-2" transform="translate(-515.000000, -490.000000)" stroke="#F27123" stroke-width="2">
            <g id="Group-4" transform="translate(436.000000, 491.000000)">
                <g id="noun_Train_654733" transform="translate(80.000000, 0.000000)">
                    <circle id="Oval" cx="9" cy="28" r="2"></circle>
                    <circle id="Oval" cx="20" cy="28" r="2"></circle>
                    <path d="M14.50232,33 L26.10116,33 C27.7037,33 29,31.8194578 29,30.3626298 L29,6.63684297 C29,5.17948765 27.70138,4 26.10116,4 L14.50232,4 L2.9,4 C1.29688,4 0,5.18106944 0,6.63684297 L0,30.3626298 C0,31.8205124 1.2992,33 2.90116,33 L14.50232,33 Z" id="Path"></path>
                    <path d="M25,5 L25,20.2287244 C25,21.7600148 23.6553232,23 21.9974284,23 L14.4994,23 L14.5018001,23 L7.00137151,23 C5.34347677,23 4,21.7600148 4,20.2287244 L4,5 L25,5 Z" id="Path"></path>
                    <path d="M5,33 L1,42 L5,33 Z" id="Path"></path>
                    <path d="M24,33 L28,42 L24,33 Z" id="Path"></path>
                    <path d="M4,37.5 L25,37.5 L4,37.5 Z" id="Path"></path>
                    <path d="M2,38.5 L27,38.5 L2,38.5 Z" id="Path"></path>
                    <polygon id="Path" points="23 4 8 0 23 0 8 4"></polygon>
                </g>
            </g>
        </g>
    </g>
</svg>