<?xml version="1.0" encoding="UTF-8"?>
<svg width="44px" height="44px" viewBox="0 0 44 44" version="1.1" xmlns="http://www.w3.org/2000/svg" xmlns:xlink="http://www.w3.org/1999/xlink">
    <!-- Generator: Sketch 52.3 (67297) - http://www.bohemiancoding.com/sketch -->
    <title>noun_solar_1321229</title>
    <desc>Created with Sketch.</desc>
    <g id="Page-1" stroke="none" stroke-width="1" fill="none" fill-rule="evenodd">
        <g id="Desktop-Copy-2" transform="translate(-141.000000, -489.000000)" fill="#F27123">
            <g id="Group-11" transform="translate(100.000000, 489.000000)">
                <g id="noun_solar_1321229" transform="translate(41.000000, 0.000000)">
                    <path d="M43.3458529,33 L0.6885759,33 C0.309859155,33 0,33.3333333 0,33.7407407 C0,34.1481481 0.309859155,34.4814815 0.6885759,34.4814815 L20.9671362,34.4814815 L20.9671362,41.4814815 C20.1752739,41.6296296 19.5211268,42.037037 19.314554,42.5185185 L16.8701095,42.5185185 C16.4913928,42.5185185 16.1815336,42.8518519 16.1815336,43.2592593 C16.1815336,43.6666667 16.4913928,44 16.8701095,44 L26.5101721,44 C26.8888889,44 27.198748,43.6666667 27.198748,43.2592593 C27.198748,42.8518519 26.8888889,42.5185185 26.5101721,42.5185185 L23.9968701,42.5185185 C23.7902973,42 23.170579,41.6296296 22.3442879,41.4814815 L22.3442879,34.4814815 L43.3114241,34.4814815 C43.6901408,34.4814815 44,34.1481481 44,33.7407407 C44,33.3333333 43.7245696,33 43.3458529,33 Z" id="Path"></path>
                    <path d="M43.793464,29.0371287 L36.7712394,18.6435644 C36.5302807,18.2574257 36.082786,18 35.566446,18 L8.09715584,18 C7.61523847,18 7.1333211,18.2574257 6.89236241,18.6435644 L0.179941881,29.0693069 C-0.198707482,29.6806931 0.0422512034,30.4851485 0.696281922,30.8391089 C0.902817938,30.9678218 1.14377662,31 1.38473531,31 L42.6230932,31 C43.380392,31 44,30.4207921 44,29.7128713 C44,29.4876238 43.9311547,29.2623762 43.793464,29.0371287 Z M36.8400848,23.9851485 L37.5629608,25.240099 C37.7694968,25.5940594 37.5973835,25.8836634 37.1498888,25.8836634 L35.669714,25.8836634 C35.2222193,25.8514851 34.8091473,25.6262376 34.6026113,25.240099 L34.0174259,23.9851485 C33.8453125,23.6311881 34.0174259,23.3415842 34.4304979,23.3415842 L35.772982,23.3415842 C36.2204767,23.3737624 36.6335488,23.6311881 36.8400848,23.9851485 Z M32.6405191,20.2846535 L33.8453125,20.2846535 C34.2583846,20.3490099 34.6370339,20.5742574 34.8091473,20.9282178 L35.4976007,22.1831683 C35.7041367,22.5371287 35.566446,22.8267327 35.1877966,22.8267327 L33.8797352,22.8267327 C33.4666632,22.7945545 33.0880138,22.5371287 32.9159005,22.1831683 L32.3307151,20.9282178 C32.1586017,20.6064356 32.2962924,20.2846535 32.6405191,20.2846535 Z M25.9280986,20.2846535 L27.132892,20.2846535 C27.5115414,20.3168317 27.8213454,20.5742574 27.9246134,20.9282178 L28.2688401,22.1831683 C28.3721081,22.4405941 28.2344174,22.6980198 27.9590361,22.7945545 C27.8901907,22.8267327 27.8213454,22.8267327 27.7525001,22.8267327 L26.4100159,22.8267327 C26.0313666,22.8267327 25.6871399,22.5371287 25.6182946,22.1831683 L25.4461812,20.9282178 C25.3773359,20.6386139 25.5494492,20.3811881 25.8592532,20.2846535 C25.8592532,20.2846535 25.8936759,20.2846535 25.9280986,20.2846535 Z M15.2570711,22.2153465 L15.6012978,20.960396 C15.6701431,20.6064356 16.0143698,20.3490099 16.3930192,20.3168317 L17.5978126,20.3168317 C17.9076166,20.3168317 18.1485753,20.5742574 18.1141526,20.8638614 C18.1141526,20.8960396 18.1141526,20.9282178 18.1141526,20.960396 L17.8731939,22.2153465 C17.8043486,22.5693069 17.4945446,22.8589109 17.0814725,22.8589109 L15.7734111,22.8589109 C15.4980298,22.8910891 15.2226484,22.6658416 15.2226484,22.4084158 C15.2226484,22.3440594 15.2226484,22.279703 15.2570711,22.2153465 Z M7.99388783,22.2153465 L8.68234122,20.960396 C8.85445456,20.6064356 9.23310393,20.3811881 9.64617596,20.3168317 L10.8509694,20.3168317 C11.1951961,20.3168317 11.3328868,20.6064356 11.1951961,20.960396 L10.6100107,22.2153465 C10.4378974,22.5693069 10.059248,22.8267327 9.64617596,22.8589109 L8.30369185,22.8589109 C7.92504249,22.8589109 7.78735181,22.5693069 7.99388783,22.2153465 Z M5.96295034,25.240099 L6.68582639,23.9851485 C6.89236241,23.6311881 7.30543444,23.3737624 7.75292914,23.3415842 L9.09541325,23.3415842 C9.47406261,23.3415842 9.64617596,23.6311881 9.50848528,23.9851485 L8.88887723,25.240099 C8.68234122,25.6262376 8.26926918,25.8514851 7.82177448,25.8836634 L6.3415997,25.8836634 C5.92852767,25.8836634 5.75641432,25.5940594 5.96295034,25.240099 Z M5.96295034,28.9405941 L4.31066221,28.9405941 C3.82874484,28.9405941 3.62220882,28.6509901 3.82874484,28.2970297 L4.55162089,27.0420792 C4.79257958,26.6559406 5.24007428,26.4306931 5.68756898,26.3985149 L7.20216643,26.3985149 C7.44312512,26.3663366 7.68408381,26.5272277 7.71850647,26.7524752 C7.71850647,26.8490099 7.71850647,26.9455446 7.64966114,27.0420792 L7.06447576,28.2970297 C6.85793974,28.6831683 6.41044504,28.9084158 5.96295034,28.9405941 Z M11.4361548,27.009901 L10.9886601,28.2648515 C10.8165467,28.6509901 10.369052,28.9084158 9.92155732,28.9084158 L8.26926918,28.9084158 C7.78735181,28.9084158 7.54639313,28.6188119 7.71850647,28.2648515 L8.26926918,27.009901 C8.4758052,26.6237624 8.88887723,26.3985149 9.33637194,26.3663366 L10.8509694,26.3663366 C11.1263507,26.3341584 11.4017321,26.5272277 11.4361548,26.7846535 C11.4361548,26.8811881 11.4361548,26.9455446 11.4361548,27.009901 Z M12.8130615,23.9851485 L12.3999895,25.240099 C12.2278762,25.6262376 11.8492268,25.8836634 11.4361548,25.8836634 L9.92155732,25.8836634 C9.68059863,25.9158416 9.43963994,25.7549505 9.40521727,25.529703 C9.40521727,25.4331683 9.40521727,25.3366337 9.47406261,25.240099 L10.0248253,23.9851485 C10.1969387,23.6311881 10.575588,23.3737624 10.9886601,23.3415842 L12.3655668,23.3415842 C12.6409482,23.3094059 12.8819069,23.5024752 12.8819069,23.759901 C12.8819069,23.8242574 12.8474842,23.9207921 12.8130615,23.9851485 Z M12.8474842,22.8589109 L11.5050001,22.8589109 C11.1263507,22.8589109 10.9542374,22.5693069 11.0919281,22.2153465 L11.6082681,20.9282178 C11.7459588,20.5742574 12.0901855,20.3168317 12.5032575,20.2846535 L13.7080509,20.2846535 C14.0522776,20.2846535 14.224391,20.5742574 14.121123,20.9282178 L13.7424736,22.2153465 C13.6047829,22.6014851 13.2605562,22.8267327 12.8474842,22.8589109 Z M17.1158952,27.009901 L16.9093592,28.2648515 C16.8060912,28.6509901 16.3930192,28.9405941 15.9799471,28.9084158 L14.327659,28.9084158 C13.8457416,28.9084158 13.5703603,28.6188119 13.6392056,28.2648515 L13.9834323,27.009901 C14.121123,26.6237624 14.4997723,26.3663366 14.9128444,26.3663366 L16.4618645,26.3663366 C16.8060912,26.3341584 17.1158952,26.5915842 17.1158952,26.9133663 C17.1158952,26.9455446 17.1158952,26.9777228 17.1158952,27.009901 Z M16.5307098,25.8836634 L15.0505351,25.8836634 C14.740731,25.9158416 14.4653497,25.7227723 14.430927,25.4331683 C14.430927,25.3688119 14.430927,25.3044554 14.430927,25.240099 L14.7751537,23.9851485 C14.8784217,23.6311881 15.2226484,23.3737624 15.6357204,23.3415842 L16.9782045,23.3415842 C17.2880086,23.3415842 17.5633899,23.5668317 17.5978126,23.8564356 C17.5978126,23.8886139 17.5978126,23.9207921 17.5978126,23.9851485 L17.3912766,25.240099 C17.3224312,25.6262376 16.9437819,25.9158416 16.5307098,25.8836634 Z M20.8335435,28.2970297 C20.7646982,28.6831683 20.3860488,28.9727723 19.9729768,28.9405941 L18.3206886,28.9405941 C17.8387713,28.9405941 17.5289672,28.6509901 17.5633899,28.2970297 L17.7355033,27.0420792 C17.8043486,26.6559406 18.182998,26.3985149 18.59607,26.3985149 L20.1106675,26.3985149 C20.4893168,26.3663366 20.8335435,26.6559406 20.8679662,27.009901 C20.8679662,27.009901 20.8679662,27.009901 20.8679662,27.0420792 L20.8335435,28.2970297 Z M20.9023888,25.240099 C20.8679662,25.6262376 20.5237395,25.9158416 20.1106675,25.8836634 L18.6304927,25.8836634 C18.286266,25.9158416 17.9764619,25.6905941 17.9420393,25.3688119 C17.9420393,25.3366337 17.9420393,25.2722772 17.9420393,25.240099 L18.1141526,23.9851485 C18.182998,23.6311881 18.492802,23.3415842 18.905874,23.3415842 L20.2483581,23.3415842 C20.6270075,23.3415842 20.9368115,23.6311881 20.9368115,23.9851485 L20.9023888,25.240099 Z M21.0056569,22.2153465 C21.0056569,22.5693069 20.6958528,22.8589109 20.3172035,22.8589109 L18.9747194,22.8589109 C18.6649153,22.8589109 18.389534,22.6336634 18.3551113,22.3118812 C18.3551113,22.279703 18.3551113,22.2475248 18.3551113,22.2153465 L18.5272247,20.9282178 C18.5616473,20.5742574 18.8370287,20.3168317 19.215678,20.2846535 L20.4204715,20.2846535 C20.7646982,20.3168317 21.0400795,20.5742574 21.0056569,20.9282178 C21.0056569,20.9282178 21.0056569,20.9282178 21.0056569,20.9282178 L21.0056569,22.2153465 Z M22.451409,20.9282178 C22.4169863,20.6064356 22.6923677,20.3168317 23.0365943,20.2846535 C23.0365943,20.2846535 23.0365943,20.2846535 23.0365943,20.2846535 L24.2413878,20.2846535 C24.6200371,20.3168317 24.8954185,20.5742574 24.9298412,20.9282178 L25.1019545,22.2153465 C25.1707998,22.5049505 24.9298412,22.7945545 24.6200371,22.8589109 C24.5856145,22.8589109 24.5511918,22.8589109 24.5167691,22.8589109 L23.174285,22.8589109 C22.7956357,22.8589109 22.4858316,22.5693069 22.4858316,22.2153465 L22.451409,20.9282178 Z M22.554677,23.9529703 C22.554677,23.5990099 22.864481,23.3094059 23.2431304,23.3094059 L24.5856145,23.3094059 C24.9642638,23.3094059 25.3084905,23.5990099 25.3773359,23.9529703 L25.5494492,25.2079208 C25.5838719,25.529703 25.3429132,25.8193069 24.9986865,25.8514851 C24.9642638,25.8514851 24.8954185,25.8514851 24.8609958,25.8514851 L23.380821,25.8514851 C22.967749,25.8836634 22.6235223,25.5940594 22.5890996,25.2079208 L22.554677,23.9529703 Z M25.2052225,28.9084158 L23.5529344,28.9084158 C23.1398624,28.9405941 22.761213,28.6509901 22.6923677,28.2648515 L22.657945,27.009901 C22.657945,26.6559406 23.0021717,26.3663366 23.380821,26.3663366 C23.380821,26.3663366 23.380821,26.3663366 23.4152437,26.3663366 L24.9298412,26.3663366 C25.3429132,26.3663366 25.7215626,26.6237624 25.7904079,27.009901 L25.9625212,28.2648515 C25.9969439,28.6188119 25.6527172,28.9084158 25.2052225,28.9084158 Z M26.1002119,25.240099 L25.8936759,23.9851485 C25.8248306,23.6955446 26.0313666,23.4059406 26.3755933,23.3415842 C26.4100159,23.3415842 26.4444386,23.3415842 26.513284,23.3415842 L27.8557681,23.3415842 C28.2688401,23.3737624 28.6130668,23.6311881 28.7163348,23.9851485 L29.0605615,25.240099 C29.1294068,25.529703 28.9572935,25.7871287 28.6819121,25.8836634 C28.6130668,25.9158416 28.5442214,25.9158416 28.4753761,25.8836634 L26.9607787,25.8836634 C26.5477066,25.8836634 26.2034799,25.6262376 26.1002119,25.240099 Z M29.1638295,28.9405941 L27.5115414,28.9405941 C27.0640467,28.9727723 26.6853973,28.6831683 26.5821293,28.2970297 L26.3755933,27.0420792 C26.3411706,26.720297 26.5821293,26.4306931 26.926356,26.3985149 C26.9607787,26.3985149 27.029624,26.3985149 27.0640467,26.3985149 L28.5786441,26.3985149 C28.9917162,26.3985149 29.4047882,26.6559406 29.5080562,27.0420792 L29.8522829,28.2970297 C29.9211282,28.6188119 29.6113242,28.9084158 29.1638295,28.9405941 Z M29.7490149,22.2153465 L29.3359428,20.9282178 C29.2326748,20.5742574 29.4047882,20.2846535 29.7490149,20.2846535 L30.9538083,20.2846535 C31.3668803,20.3168317 31.711107,20.5742574 31.8487977,20.9282178 L32.3995604,22.2153465 C32.5372511,22.5693069 32.3651378,22.8589109 31.9864884,22.8589109 L30.6440043,22.8589109 C30.2309322,22.8267327 29.8867056,22.6014851 29.7490149,22.2153465 Z M31.091499,25.240099 L30.678427,23.9851485 C30.5751589,23.759901 30.678427,23.470297 30.9193856,23.3737624 C30.988231,23.3415842 31.0570763,23.3415842 31.1603443,23.3415842 L32.5028284,23.3415842 C32.9159005,23.3737624 33.2945498,23.6311881 33.4666632,23.9851485 L34.0174259,25.240099 C34.1551166,25.4653465 34.0518485,25.7227723 33.8453125,25.8193069 C33.7420445,25.8514851 33.6387765,25.8836634 33.5355085,25.8836634 L32.0553337,25.8836634 C31.6422617,25.8836634 31.2636123,25.6262376 31.091499,25.240099 Z M35.2222193,28.9405941 L33.5699312,28.9405941 C33.1224365,28.9405941 32.6749418,28.6831683 32.5028284,28.2970297 L32.0897564,27.0420792 C31.9864884,26.7846535 32.1241791,26.5272277 32.3995604,26.4306931 C32.4684058,26.3985149 32.5716738,26.3985149 32.6405191,26.3985149 L34.1551166,26.3985149 C34.6026113,26.4306931 35.0156833,26.6559406 35.2222193,27.0420792 L35.8074047,28.2970297 C35.9450954,28.6188119 35.7041367,28.9084158 35.2222193,28.9405941 Z M39.1808263,28.9405941 L37.5285382,28.9405941 C37.0466208,28.9405941 36.5991261,28.6831683 36.3925901,28.2970297 L35.8074047,27.0420792 C35.669714,26.8490099 35.7385593,26.5594059 35.979518,26.4628713 C36.082786,26.3985149 36.1860541,26.3985149 36.2893221,26.3985149 L37.8039195,26.3985149 C38.2858369,26.4306931 38.6989089,26.6559406 38.9398676,27.0420792 L39.6627437,28.2970297 C39.8692797,28.6188119 39.6627437,28.9084158 39.1808263,28.9405941 Z" id="Shape" fill-rule="nonzero"></path>
                    <path d="M19.624349,11.5849301 C21.8710734,12.6334015 24.5296974,11.6223755 25.5781688,9.37565104 C26.6266403,7.12892656 25.6530596,4.47030259 23.4063352,3.42183117 C23.4063352,3.42183117 23.4063352,3.42183117 23.4063352,3.42183117 C21.1596107,2.37335975 18.5009867,3.34694035 17.4150699,5.59366483 C17.4150699,5.59366483 17.4150699,5.63111024 17.4150699,5.63111024 C16.3665985,7.87783472 17.3776245,10.5364587 19.624349,11.5849301 C19.624349,11.5849301 19.624349,11.5849301 19.624349,11.5849301 Z" id="Path"></path>
                    <path d="M19.5793739,10.0764995 C19.2281016,9.8814994 18.8065748,10.0764995 18.6660659,10.4664996 C18.6660659,10.4664996 18.6660659,10.4664996 18.6660659,10.4664996 L18.0689029,11.8705001 C17.8932668,12.2605003 18.0689029,12.7285005 18.4201752,12.9235005 C18.7714476,13.1185006 19.1929744,12.9235005 19.3686105,12.5335004 C19.3686105,12.5335004 19.3686105,12.5335004 19.3686105,12.5335004 L19.9657735,11.1294999 C20.0711552,10.7004997 19.9306463,10.2324995 19.5793739,10.0764995 C19.5793739,10.0764995 19.5793739,10.0764995 19.5793739,10.0764995 Z" id="Path"></path>
                    <path d="M23.4318219,2.92350053 C23.7806041,3.1185006 24.1991428,2.92350053 24.3386557,2.53350038 C24.3386557,2.53350038 24.3386557,2.53350038 24.3386557,2.53350038 L24.9315855,1.12949986 C25.1059766,0.739499719 24.9315855,0.271499545 24.5828033,0.0764994732 C24.234021,-0.118500599 23.8154823,0.0764994732 23.6410912,0.466499618 C23.6410912,0.466499618 23.6410912,0.466499618 23.6410912,0.466499618 L23.0481614,1.90950015 C22.9086485,2.26050028 23.0830396,2.72850045 23.4318219,2.92350053 C23.4318219,2.92350053 23.4318219,2.92350053 23.4318219,2.92350053 Z" id="Path"></path>
                    <path d="M15.4233718,4.33717707 L16.873597,4.93143256 C17.2764374,5.10621358 17.7598458,4.93143256 17.9209819,4.58187051 C17.9209819,4.58187051 17.9209819,4.58187051 17.9209819,4.58187051 C18.1224021,4.23230846 17.9209819,3.81283399 17.5181416,3.63805297 C17.5181416,3.63805297 17.5181416,3.63805297 17.5181416,3.63805297 L16.0276323,3.04379748 C15.624792,2.90397266 15.1413836,3.11370989 15.0205315,3.46327194 C14.9399634,3.81283399 15.1010995,4.16239605 15.4233718,4.33717707 Z" id="Path"></path>
                    <path d="M26.4664996,10.3452857 L27.8705001,10.9322714 C28.2605003,11.1049142 28.7285005,10.9322714 28.9235005,10.5869857 C29.1185006,10.2417 28.9235005,9.82735715 28.5335004,9.65471431 L27.1294999,9.06772863 C26.7394997,8.89508578 26.2714995,9.06772863 26.0764995,9.41301432 C25.8814994,9.75830001 26.0764995,10.2071714 26.4664996,10.3452857 Z" id="Path"></path>
                    <path d="M15.7739394,11 C15.8503669,11 15.965008,11 16.0414354,10.9631356 L17.4935565,10.4470344 C17.8756937,10.2995769 18.104976,9.89406883 17.9521211,9.48856074 C17.7992663,9.11991702 17.3789154,8.89873078 16.9585646,9.04618827 L15.5064435,9.56228948 C15.1243063,9.70974697 14.895024,10.1152551 15.0478789,10.5207632 C15.16252,10.7788138 15.430016,11 15.7739394,11 Z" id="Path"></path>
                    <path d="M26.7952148,6 C26.8737432,6 26.9915358,6 27.0700642,5.96262013 L28.5621036,5.4393019 C28.9547455,5.25240253 29.1118023,4.80384405 28.9154813,4.43004531 C28.7584246,4.09362645 28.3657826,3.94410695 28.0124048,4.0188667 L26.5203654,4.54218493 C26.1277235,4.69170442 25.8921383,5.10288303 26.0491951,5.51406164 C26.1669877,5.81310063 26.4811012,6 26.7952148,6 Z" id="Path"></path>
                    <path d="M18.5701405,2.49355655 C18.7196568,2.87569368 19.1308268,3.10497596 19.5046177,2.95212111 C19.8784086,2.79926625 20.1026832,2.37891541 19.9531668,1.99677827 C19.9531668,1.99677827 19.9531668,1.99677827 19.9531668,1.95856456 L19.4298595,0.506443454 C19.2803432,0.124306321 18.8691732,-0.104975959 18.4953823,0.0478788943 C18.1215914,0.200733748 17.8973168,0.621084594 18.0468332,1.00322173 C18.0468332,1.00322173 18.0468332,1.00322173 18.0468332,1.04143544 L18.5701405,2.49355655 Z" id="Path"></path>
                    <path d="M23.4953823,11.0533599 C23.1215914,11.2079318 22.8973168,11.6330046 23.0468332,12.0580774 L23.5701405,13.4878675 C23.7196568,13.8742973 24.1308268,14.1061552 24.5046177,13.9515833 C24.8784086,13.7970114 25.1026832,13.3719386 24.9531668,12.9855088 C24.9531668,12.9855088 24.9531668,12.9855088 24.9531668,12.9468658 L24.4298595,11.4784327 C24.3177223,11.0920029 23.8691732,10.898788 23.4953823,11.0533599 Z" id="Path"></path>
                </g>
            </g>
        </g>
    </g>
</svg>