<?xml version="1.0" encoding="UTF-8"?>
<svg width="41px" height="39px" viewBox="0 0 41 39" version="1.1" xmlns="http://www.w3.org/2000/svg" xmlns:xlink="http://www.w3.org/1999/xlink">
    <!-- Generator: Sketch 52.3 (67297) - http://www.bohemiancoding.com/sketch -->
    <title>noun_Transmission Tower_16655</title>
    <desc>Created with Sketch.</desc>
    <g id="Page-1" stroke="none" stroke-width="1" fill="none" fill-rule="evenodd">
        <g id="Desktop-Copy-2" transform="translate(-324.000000, -494.000000)" fill="#F27123">
            <g id="Group-2" transform="translate(275.000000, 494.000000)">
                <g id="noun_Transmission-Tower_16655" transform="translate(49.000000, 0.000000)">
                    <g id="Group">
                        <path d="M9.40480208,35.1205955 L11.2207604,35.1205955 L11.9856667,30.6206966 L20.5008542,22.3899438 L29.0173229,30.6206966 L29.7822292,35.1205955 L31.5981875,35.1205955 L27.0924583,8.6181236 L40.7668125,8.6181236 L31.9368646,0 L9.10840625,0 L0.278458333,8.6181236 L13.9105312,8.6181236 L9.40480208,35.1205955 Z M12.4977396,27.6045506 L14.3888646,16.4829775 L19.1973958,21.1305506 L12.4977396,27.6045506 Z M14.9479167,14.5018652 L20.5012812,9.13344944 L26.0550729,14.5018652 L20.5017083,19.8694045 L14.9479167,14.5018652 Z M28.5043958,27.603236 L21.8064479,21.1301124 L26.6145521,16.4825393 L28.5043958,27.603236 Z M32.2482083,2.83692135 L36.2922604,6.78337079 L28.1648646,6.78337079 L32.2482083,2.83692135 Z M30.6769687,1.83475281 L26.6081458,5.76717978 L25.9406146,1.83475281 L30.6769687,1.83475281 Z M25.8086458,11.7425056 L21.8055938,7.87361798 L24.6794375,5.09629213 L25.8086458,11.7425056 Z M16.8783333,1.83475281 L24.1246563,1.83475281 L24.3108646,2.93113483 L20.5017083,6.61291011 L16.6925521,2.93113483 L16.8783333,1.83475281 Z M16.3244062,5.09585393 L19.1973958,7.87317978 L15.1943437,11.7429438 L16.3244062,5.09585393 Z M4.75301042,6.78337079 L8.77698958,2.85576404 L12.8406875,6.78337079 L4.75301042,6.78337079 Z M10.3285833,1.83475281 L15.0632292,1.83475281 L14.3952708,5.76542697 L10.3285833,1.83475281 Z" id="Shape" fill-rule="nonzero"></path>
                        <rect id="Rectangle" x="7.17072917" y="36.8427303" width="26.7042396" height="1.7751573"></rect>
                        <rect id="Rectangle" x="0.579125" y="9.29470787" width="2.42113542" height="1.06220225"></rect>
                        <rect id="Rectangle" x="0.579125" y="11.030427" width="2.42113542" height="1.06220225"></rect>
                        <rect id="Rectangle" x="0.579125" y="12.7657079" width="2.42113542" height="1.06220225"></rect>
                        <rect id="Rectangle" x="6.02358333" y="9.29470787" width="2.42113542" height="1.06220225"></rect>
                        <rect id="Rectangle" x="6.02358333" y="11.030427" width="2.42113542" height="1.06220225"></rect>
                        <rect id="Rectangle" x="6.02358333" y="12.7657079" width="2.42113542" height="1.06220225"></rect>
                        <rect id="Rectangle" x="32.600125" y="9.29470787" width="2.4215625" height="1.06220225"></rect>
                        <rect id="Rectangle" x="32.600125" y="11.030427" width="2.4215625" height="1.06220225"></rect>
                        <rect id="Rectangle" x="32.600125" y="12.7657079" width="2.4215625" height="1.06220225"></rect>
                        <rect id="Rectangle" x="38.0445833" y="9.29470787" width="2.4215625" height="1.06220225"></rect>
                        <rect id="Rectangle" x="38.0445833" y="11.030427" width="2.4215625" height="1.06220225"></rect>
                        <rect id="Rectangle" x="38.0445833" y="12.7657079" width="2.4215625" height="1.06220225"></rect>
                        <rect id="Rectangle" x="0.579125" y="14.501427" width="2.42113542" height="1.06220225"></rect>
                        <rect id="Rectangle" x="6.02358333" y="14.501427" width="2.42113542" height="1.06220225"></rect>
                        <rect id="Rectangle" x="32.600125" y="14.501427" width="2.4215625" height="1.06220225"></rect>
                        <rect id="Rectangle" x="38.0445833" y="14.501427" width="2.4215625" height="1.06220225"></rect>
                    </g>
                </g>
            </g>
        </g>
    </g>
</svg>